<svg xmlns="http://www.w3.org/2000/svg" version="1.1" xmlns:xlink="http://www.w3.org/1999/xlink" xmlns:svgjs="http://svgjs.com/svgjs" height="150.0713044150484" width="249.02999877929688" class=""><defs id="SvgjsDefs1036"></defs><g id="SvgjsG1037" rel="mainfill" name="main_text" xmlns:name="main_text" transform="translate(-8.180000305175781,-91.41870107811567)" fill="#141414"><path d="M45.19 231.82C45.19 231.54 45.01 231.44 44.82 231.44C44.36 231.44 42.40 234.33 41.29 235.26C39.99 236.28 35.62 236.28 33.57 236.28C30.13 236.28 26.60 236.28 23.25 235.54C20.46 234.89 20.27 232.19 20.18 229.86C19.99 227.35 19.90 224.94 19.90 222.42L19.90 182.25C19.90 180.58 20.09 178.72 21.11 177.32C21.95 176.21 22.78 175.93 23.99 175.65C24.36 175.56 25.29 175.28 25.29 175.00C25.29 174.63 25.11 174.54 24.74 174.54C22.13 174.54 19.62 174.91 17.02 174.91C14.41 174.91 11.90 174.54 9.30 174.54C8.65 174.54 8.18 174.54 8.18 174.91C8.18 175.28 8.93 175.37 9.21 175.46C10.41 175.74 11.72 175.93 12.46 176.95C13.67 178.53 13.95 181.23 13.95 183.18L13.95 225.31C13.95 228.19 13.76 234.79 12.55 237.21C11.90 238.51 10.97 239.07 9.58 239.35C9.30 239.44 8.18 239.26 8.18 239.81C8.18 240.19 8.93 240.19 9.48 240.19C12.27 240.19 15.06 240 17.85 240C26.04 240 34.13 240.19 42.31 240.19C42.96 240.19 42.96 240.09 43.05 239.54C43.61 236.00 45.19 232.75 45.19 231.82ZM114.47 206.06C114.47 192.39 106.57 179.74 93.45 175.09C89.36 173.70 85.18 173.42 80.90 173.42C66.12 173.42 54.77 184.02 51.33 197.97C50.49 201.32 50.31 204.66 50.31 208.01C50.31 227.91 63.70 241.49 83.69 241.49C104.52 241.49 114.47 225.21 114.47 206.06ZM107.96 213.22C107.96 227.82 99.87 238.70 84.53 238.70C66.30 238.70 57.19 220.66 57.19 204.48C57.19 189.51 64.44 176.21 80.99 176.21C100.24 176.21 107.96 196.95 107.96 213.22ZM184.68 208.48C184.68 208.01 184.21 208.01 183.93 208.01C181.98 208.01 180.03 208.29 177.98 208.29C174.26 208.29 170.17 207.64 167.85 207.64C167.38 207.64 166.73 207.64 166.73 208.10C166.73 208.94 169.52 208.94 171.47 210.71C172.59 211.64 173.05 214.24 173.05 215.64L173.05 226.14C173.05 230.33 172.78 233.77 170.08 235.91C167.20 238.23 162.73 238.79 159.11 238.79C151.95 238.79 146.09 236.75 140.60 232.19C131.67 224.84 128.79 213.96 128.79 202.80C128.79 193.23 132.32 183.18 141.53 178.91C146.27 176.67 150.36 176.30 155.48 176.30C161.90 176.30 171.47 178.44 176.03 183.56C177.33 185.04 178.35 186.34 178.35 188.39C178.35 188.86 178.54 189.60 179.19 189.60C179.75 189.60 179.84 187.65 179.84 185.88L179.84 183.28C179.84 180.39 180.59 178.63 180.59 176.49C180.59 176.02 180.40 175.84 180.21 175.84C179.56 175.84 179.66 176.86 177.15 176.86C175.19 176.86 171.19 175.28 169.15 174.81C164.78 173.79 160.41 173.42 155.94 173.42C151.57 173.42 144.79 174.07 140.69 175.84C128.98 180.86 121.91 193.69 121.91 206.15C121.91 231.07 135.67 241.49 159.01 241.49C163.29 241.49 174.73 240.09 178.26 237.58C178.73 237.21 179.10 237.02 179.10 236.37C179.10 233.40 179.01 222.61 179.01 219.64C179.01 213.87 179.19 211.17 180.87 209.96C182.17 209.03 184.68 209.03 184.68 208.48ZM257.21 206.06C257.21 192.39 249.31 179.74 236.19 175.09C232.10 173.70 227.92 173.42 223.64 173.42C208.86 173.42 197.51 184.02 194.07 197.97C193.23 201.32 193.05 204.66 193.05 208.01C193.05 227.91 206.44 241.49 226.43 241.49C247.26 241.49 257.21 225.21 257.21 206.06ZM250.70 213.22C250.70 227.82 242.61 238.70 227.27 238.70C209.04 238.70 199.93 220.66 199.93 204.48C199.93 189.51 207.18 176.21 223.73 176.21C242.98 176.21 250.70 196.95 250.70 213.22Z" fill="#141414" style="fill: #ffffff;"></path></g><g id="SvgjsG1038" rel="mainfill" name="symbol" xmlns:name="symbol_mainfill" transform="translate(82.63983964939848,-8.373923350715296) scale(0.8374989616883752)" fill="#141414"><path d="M87.732,12.266c-5.778-5.782-21.23-0.137-37.731,12.747C33.495,12.129,18.043,6.487,12.268,12.266  C6.485,18.048,12.131,33.497,25.01,50C12.134,66.504,6.485,81.956,12.268,87.734c5.778,5.781,21.234,0.134,37.734-12.747  c16.5,12.881,31.953,18.528,37.731,12.747C93.516,81.952,87.867,66.5,74.986,50C87.87,33.497,93.516,18.045,87.732,12.266z   M81.215,16.662c1.222,0,1.739,0.254,1.804,0.319c0.336,0.335,1.205,4.118-2.973,12.821c-2.266,4.721-5.473,9.784-9.379,14.912  c-2.303-2.664-4.776-5.327-7.414-7.964c-2.634-2.63-5.298-5.104-7.957-7.406C66.277,20.992,75.927,16.662,81.215,16.662z   M66.404,49.998c-2.442,2.867-5.06,5.733-7.869,8.542c-2.865,2.869-5.724,5.479-8.531,7.863c-2.868-2.438-5.733-5.056-8.54-7.863  c-2.869-2.867-5.482-5.727-7.866-8.532c2.438-2.872,5.053-5.733,7.859-8.541c2.872-2.868,5.73-5.485,8.537-7.869  c2.872,2.442,5.738,5.06,8.543,7.866C61.407,44.333,64.021,47.188,66.404,49.998z M16.663,18.784c0-1.217,0.254-1.738,0.318-1.803  c0.332-0.332,4.116-1.205,12.821,2.976c4.721,2.266,9.78,5.473,14.912,9.376c-2.664,2.305-5.333,4.779-7.97,7.416  c-2.631,2.634-5.105,5.298-7.403,7.958C20.993,33.721,16.663,24.071,16.663,18.784z M18.785,83.339  c-1.221,0-1.741-0.257-1.804-0.318c-0.335-0.336-1.205-4.119,2.976-12.822c2.266-4.72,5.47-9.783,9.376-14.911  c2.305,2.663,4.779,5.33,7.416,7.967c2.631,2.635,5.294,5.105,7.958,7.407C33.722,79.009,24.072,83.339,18.785,83.339z   M83.338,81.216c0,1.219-0.257,1.739-0.319,1.801c-0.335,0.336-4.118,1.208-12.821-2.973c-4.717-2.266-9.78-5.473-14.908-9.379  c2.66-2.303,5.327-4.776,7.96-7.411c2.635-2.634,5.108-5.297,7.411-7.96C79.008,66.279,83.338,75.925,83.338,81.216z" fill="#141414" style="fill: #ffffff;"></path></g></svg>